<svg width="65" height="48" viewBox="0 0 65 48" fill="none" xmlns="http://www.w3.org/2000/svg">
<path d="M55.0252 3.97894C50.8824 2.13726 46.4398 0.780394 41.7947 0.00325998C41.7101 -0.0117385 41.6256 0.0257435 41.5821 0.100709C41.0107 1.08524 40.3778 2.36964 39.9346 3.37918C34.9386 2.65453 29.9682 2.65453 25.0746 3.37918C24.6313 2.3472 23.9755 1.08524 23.4016 0.100709C23.358 0.0282447 23.2735 -0.00923725 23.1889 0.00325998C18.5464 0.77791 14.1038 2.13478 9.95837 3.97894C9.92248 3.99393 9.89172 4.01894 9.8713 4.0514C1.4446 16.2483 -0.863824 28.1454 0.268613 39.895C0.273737 39.9525 0.307043 40.0075 0.353161 40.0424C5.91286 43.9981 11.2984 46.3995 16.5839 47.9913C16.6685 48.0163 16.7581 47.9863 16.8119 47.9188C18.0622 46.2646 19.1767 44.5204 20.1323 42.6862C20.1887 42.5788 20.1349 42.4513 20.0196 42.4088C18.2518 41.7591 16.5685 40.967 14.9493 40.0674C14.8212 39.995 14.8109 39.8175 14.9288 39.7325C15.2695 39.4852 15.6103 39.2278 15.9357 38.9679C15.9946 38.9204 16.0766 38.9104 16.1458 38.9404C26.7835 43.6458 38.3 43.6458 48.8122 38.9404C48.8814 38.9079 48.9634 38.9179 49.0248 38.9654C49.3503 39.2253 49.691 39.4852 50.0343 39.7325C50.1522 39.8175 50.1445 39.995 50.0164 40.0674C48.3972 40.9845 46.7139 41.7591 44.9435 42.4063C44.8282 42.4488 44.7769 42.5788 44.8333 42.6862C45.8094 44.5178 46.924 46.262 48.1512 47.9163C48.2024 47.9863 48.2946 48.0163 48.3792 47.9913C53.6904 46.3995 59.0758 43.9981 64.6355 40.0424C64.6842 40.0075 64.715 39.955 64.7201 39.8975C66.0754 26.3137 62.4501 14.5141 55.1097 4.05389C55.0918 4.01894 55.0611 3.99393 55.0252 3.97894ZM21.7209 32.7407C18.5182 32.7407 15.8793 29.8921 15.8793 26.3937C15.8793 22.8952 18.467 20.0466 21.7209 20.0466C25.0003 20.0466 27.6136 22.9203 27.5624 26.3937C27.5624 29.8921 24.9746 32.7407 21.7209 32.7407ZM43.3191 32.7407C40.1165 32.7407 37.4776 29.8921 37.4776 26.3937C37.4776 22.8952 40.0653 20.0466 43.3191 20.0466C46.5986 20.0466 49.2119 22.9203 49.1607 26.3937C49.1607 29.8921 46.5986 32.7407 43.3191 32.7407Z" fill="white"/>
</svg>
