<svg width="48" height="48" viewBox="0 0 48 48" fill="none" xmlns="http://www.w3.org/2000/svg">
<path fill-rule="evenodd" clip-rule="evenodd" d="M24 0C17.4816 0 16.6656 0.0272 14.1056 0.144C11.5504 0.2608 9.8048 0.6672 8.2784 1.2608C6.6784 1.8624 5.2272 2.8064 4.0272 4.0288C2.80675 5.22741 1.86217 6.67759 1.2592 8.2784C0.6688 9.8048 0.2608 11.552 0.144 14.1072C0.0288 16.6656 0 17.48 0 24C0 30.52 0.0272 31.3344 0.144 33.8944C0.2608 36.4496 0.6672 38.1952 1.2608 39.7216C1.8624 41.3216 2.8064 42.7728 4.0288 43.9728C5.22745 45.1932 6.67762 46.1378 8.2784 46.7408C9.8048 47.3328 11.5504 47.7392 14.1056 47.856C16.6656 47.9728 17.4816 48 24 48C30.5184 48 31.3344 47.9728 33.8944 47.856C36.4496 47.7392 38.1952 47.3328 39.7216 46.7392C41.3216 46.1376 42.7728 45.1936 43.9728 43.9712C45.1932 42.7726 46.1378 41.3224 46.7408 39.7216C47.3328 38.1952 47.7392 36.4496 47.856 33.8944C47.9728 31.3344 48 30.5184 48 24C48 17.4816 47.9728 16.6656 47.856 14.1056C47.7392 11.5504 47.3328 9.8048 46.7392 8.2784C46.1367 6.6769 45.192 5.22611 43.9712 4.0272C42.7726 2.80675 41.3224 1.86217 39.7216 1.2592C38.1952 0.6688 36.448 0.2608 33.8928 0.144C31.3344 0.0288 30.52 0 24 0ZM24 4.3248C30.408 4.3248 31.168 4.3488 33.6992 4.464C36.0384 4.5712 37.3088 4.96 38.1552 5.2912C39.2752 5.7248 40.0752 6.2464 40.9152 7.0848C41.7552 7.9248 42.2752 8.7248 42.7088 9.8448C43.0384 10.6912 43.4288 11.9616 43.536 14.3008C43.6512 16.832 43.6752 17.592 43.6752 24C43.6752 30.408 43.6512 31.168 43.536 33.6992C43.4288 36.0384 43.04 37.3088 42.7088 38.1552C42.3247 39.1977 41.7118 40.1408 40.9152 40.9152C40.1409 41.712 39.1978 42.3249 38.1552 42.7088C37.3088 43.0384 36.0384 43.4288 33.6992 43.536C31.168 43.6512 30.4096 43.6752 24 43.6752C17.5904 43.6752 16.832 43.6512 14.3008 43.536C11.9616 43.4288 10.6912 43.04 9.8448 42.7088C8.80233 42.3247 7.85921 41.7118 7.0848 40.9152C6.28828 40.1407 5.67541 39.1976 5.2912 38.1552C4.9616 37.3088 4.5712 36.0384 4.464 33.6992C4.3488 31.168 4.3248 30.408 4.3248 24C4.3248 17.592 4.3488 16.832 4.464 14.3008C4.5712 11.9616 4.96 10.6912 5.2912 9.8448C5.7248 8.7248 6.2464 7.9248 7.0848 7.0848C7.85911 6.28807 8.80225 5.67516 9.8448 5.2912C10.6912 4.9616 11.9616 4.5712 14.3008 4.464C16.832 4.3488 17.592 4.3248 24 4.3248V4.3248Z" fill="white"/>
<path fill-rule="evenodd" clip-rule="evenodd" d="M23.9727 31.7317C22.9521 31.7317 21.9414 31.5274 20.9984 31.1305C20.0555 30.7336 19.1987 30.1519 18.477 29.4185C17.7553 28.6852 17.1828 27.8145 16.7922 26.8564C16.4016 25.8982 16.2005 24.8712 16.2005 23.8341C16.2005 22.797 16.4016 21.77 16.7922 20.8118C17.1828 19.8536 17.7553 18.983 18.477 18.2496C19.1987 17.5163 20.0555 16.9345 20.9984 16.5377C21.9414 16.1408 22.9521 15.9365 23.9727 15.9365C26.034 15.9365 28.0109 16.7686 29.4685 18.2496C30.9261 19.7307 31.7449 21.7395 31.7449 23.8341C31.7449 25.9287 30.9261 27.9374 29.4685 29.4185C28.0109 30.8996 26.034 31.7317 23.9727 31.7317V31.7317ZM23.9727 11.6682C20.7974 11.6682 17.7521 12.9499 15.5067 15.2315C13.2614 17.513 12 20.6075 12 23.8341C12 27.0607 13.2614 30.1551 15.5067 32.4367C17.7521 34.7183 20.7974 36 23.9727 36C27.1481 36 30.1934 34.7183 32.4387 32.4367C34.684 30.1551 35.9455 27.0607 35.9455 23.8341C35.9455 20.6075 34.684 17.513 32.4387 15.2315C30.1934 12.9499 27.1481 11.6682 23.9727 11.6682V11.6682ZM39.4286 11.4472C39.4286 12.21 39.1304 12.9414 38.5997 13.4807C38.0689 14.0201 37.349 14.323 36.5984 14.323C35.8478 14.323 35.128 14.0201 34.5972 13.4807C34.0665 12.9414 33.7683 12.21 33.7683 11.4472C33.7683 10.6845 34.0665 9.95306 34.5972 9.41374C35.128 8.87443 35.8478 8.57144 36.5984 8.57144C37.349 8.57144 38.0689 8.87443 38.5997 9.41374C39.1304 9.95306 39.4286 10.6845 39.4286 11.4472" fill="white"/>
</svg>
